<mxfile host="app.diagrams.net" modified="2024-01-21T21:54:26.899Z" agent="Mozilla/5.0 (X11; Linux x86_64) AppleWebKit/537.36 (KHTML, like Gecko) Chrome/120.0.0.0 Safari/537.36" etag="YTvivh-YoFXis0HF4IVb" version="22.1.21" type="github">
  <diagram name="Page-1" id="hEScQDXhw0j4yMXh8DrU">
    <mxGraphModel dx="1624" dy="1068" grid="1" gridSize="10" guides="1" tooltips="1" connect="1" arrows="1" fold="1" page="1" pageScale="1" pageWidth="827" pageHeight="1169" math="0" shadow="0">
      <root>
        <mxCell id="0" />
        <mxCell id="1" parent="0" />
        <mxCell id="2zkmHtiW4IPjKqOH3rxB-2" value="Vercel" style="rounded=0;whiteSpace=wrap;html=1;" vertex="1" parent="1">
          <mxGeometry x="20" y="90" width="570" height="150" as="geometry" />
        </mxCell>
        <mxCell id="2zkmHtiW4IPjKqOH3rxB-3" value="Navegador Web" style="rounded=0;whiteSpace=wrap;html=1;" vertex="1" parent="1">
          <mxGeometry x="340" y="340" width="480" height="150" as="geometry" />
        </mxCell>
        <mxCell id="2zkmHtiW4IPjKqOH3rxB-4" value="Deepgram &lt;br&gt;(Speech to Text)" style="rounded=0;whiteSpace=wrap;html=1;" vertex="1" parent="1">
          <mxGeometry x="670" y="140" width="120" height="60" as="geometry" />
        </mxCell>
        <mxCell id="2zkmHtiW4IPjKqOH3rxB-5" value="Listen" style="ellipse;whiteSpace=wrap;html=1;" vertex="1" parent="1">
          <mxGeometry x="390" y="360" width="120" height="100" as="geometry" />
        </mxCell>
        <mxCell id="2zkmHtiW4IPjKqOH3rxB-9" value="" style="endArrow=classic;startArrow=classic;html=1;rounded=0;" edge="1" parent="1" source="2zkmHtiW4IPjKqOH3rxB-5" target="2zkmHtiW4IPjKqOH3rxB-4">
          <mxGeometry width="50" height="50" relative="1" as="geometry">
            <mxPoint x="390" y="510" as="sourcePoint" />
            <mxPoint x="440" y="460" as="targetPoint" />
          </mxGeometry>
        </mxCell>
        <mxCell id="2zkmHtiW4IPjKqOH3rxB-10" value="" style="endArrow=classic;startArrow=classic;html=1;rounded=0;" edge="1" parent="1" source="2zkmHtiW4IPjKqOH3rxB-5" target="2zkmHtiW4IPjKqOH3rxB-11">
          <mxGeometry width="50" height="50" relative="1" as="geometry">
            <mxPoint x="390" y="510" as="sourcePoint" />
            <mxPoint x="440" y="460" as="targetPoint" />
          </mxGeometry>
        </mxCell>
        <mxCell id="2zkmHtiW4IPjKqOH3rxB-11" value="Busca linea de texto" style="ellipse;whiteSpace=wrap;html=1;aspect=fixed;" vertex="1" parent="1">
          <mxGeometry x="364" y="115" width="100" height="100" as="geometry" />
        </mxCell>
        <mxCell id="2zkmHtiW4IPjKqOH3rxB-12" value="" style="shape=cylinder3;whiteSpace=wrap;html=1;boundedLbl=1;backgroundOutline=1;size=15;" vertex="1" parent="1">
          <mxGeometry x="240" y="40" width="60" height="80" as="geometry" />
        </mxCell>
        <mxCell id="2zkmHtiW4IPjKqOH3rxB-13" value="" style="endArrow=classic;startArrow=classic;html=1;rounded=0;entryX=0.983;entryY=0.9;entryDx=0;entryDy=0;entryPerimeter=0;exitX=0;exitY=0;exitDx=0;exitDy=0;" edge="1" parent="1" source="2zkmHtiW4IPjKqOH3rxB-11" target="2zkmHtiW4IPjKqOH3rxB-12">
          <mxGeometry width="50" height="50" relative="1" as="geometry">
            <mxPoint x="390" y="510" as="sourcePoint" />
            <mxPoint x="440" y="460" as="targetPoint" />
          </mxGeometry>
        </mxCell>
        <mxCell id="2zkmHtiW4IPjKqOH3rxB-14" value="" style="rounded=0;whiteSpace=wrap;html=1;" vertex="1" parent="1">
          <mxGeometry x="80" y="560" width="110" height="60" as="geometry" />
        </mxCell>
        <mxCell id="2zkmHtiW4IPjKqOH3rxB-15" value="" style="rounded=0;whiteSpace=wrap;html=1;" vertex="1" parent="1">
          <mxGeometry x="290" y="640" width="120" height="60" as="geometry" />
        </mxCell>
        <mxCell id="2zkmHtiW4IPjKqOH3rxB-17" value="" style="rounded=0;whiteSpace=wrap;html=1;" vertex="1" parent="1">
          <mxGeometry x="120" y="650" width="120" height="60" as="geometry" />
        </mxCell>
        <mxCell id="2zkmHtiW4IPjKqOH3rxB-18" value="" style="rounded=0;whiteSpace=wrap;html=1;" vertex="1" parent="1">
          <mxGeometry x="230" y="720" width="120" height="60" as="geometry" />
        </mxCell>
        <mxCell id="2zkmHtiW4IPjKqOH3rxB-19" value="" style="rounded=0;whiteSpace=wrap;html=1;" vertex="1" parent="1">
          <mxGeometry x="60" y="720" width="120" height="60" as="geometry" />
        </mxCell>
        <mxCell id="2zkmHtiW4IPjKqOH3rxB-20" value="" style="endArrow=classic;html=1;rounded=0;exitX=0.5;exitY=0;exitDx=0;exitDy=0;" edge="1" parent="1" source="2zkmHtiW4IPjKqOH3rxB-14" target="2zkmHtiW4IPjKqOH3rxB-21">
          <mxGeometry width="50" height="50" relative="1" as="geometry">
            <mxPoint x="15" y="620" as="sourcePoint" />
            <mxPoint x="80" y="350" as="targetPoint" />
          </mxGeometry>
        </mxCell>
        <mxCell id="2zkmHtiW4IPjKqOH3rxB-21" value="Dame la linea" style="ellipse;whiteSpace=wrap;html=1;" vertex="1" parent="1">
          <mxGeometry x="50" y="140" width="120" height="80" as="geometry" />
        </mxCell>
        <mxCell id="2zkmHtiW4IPjKqOH3rxB-22" value="" style="endArrow=classic;html=1;rounded=0;" edge="1" parent="1" target="2zkmHtiW4IPjKqOH3rxB-12">
          <mxGeometry width="50" height="50" relative="1" as="geometry">
            <mxPoint x="130" y="140" as="sourcePoint" />
            <mxPoint x="180" y="90" as="targetPoint" />
          </mxGeometry>
        </mxCell>
        <mxCell id="2zkmHtiW4IPjKqOH3rxB-23" value="" style="endArrow=classic;html=1;rounded=0;exitX=0.5;exitY=0;exitDx=0;exitDy=0;entryX=0.648;entryY=0.959;entryDx=0;entryDy=0;entryPerimeter=0;" edge="1" parent="1" source="2zkmHtiW4IPjKqOH3rxB-15" target="2zkmHtiW4IPjKqOH3rxB-21">
          <mxGeometry width="50" height="50" relative="1" as="geometry">
            <mxPoint x="25" y="630" as="sourcePoint" />
            <mxPoint x="111" y="230" as="targetPoint" />
          </mxGeometry>
        </mxCell>
      </root>
    </mxGraphModel>
  </diagram>
</mxfile>
